<?xml version="1.0" encoding="UTF-8"?>
<!DOCTYPE svg PUBLIC "-//W3C//DTD SVG 1.1//EN" "http://www.w3.org/Graphics/SVG/1.1/DTD/svg11.dtd">
<svg version="1.1" xmlns="http://www.w3.org/2000/svg" xmlns:xlink="http://www.w3.org/1999/xlink" x="0" y="0" width="256.8" height="256.8" viewBox="0, 0, 256.8, 256.8">
  <g id="Layer_1">
    <g id="Layer_1">
      <path d="M56.324,129.786 C61.628,138.179 81.445,166.268 128.537,165.504 C155.819,164.302 185.153,154.163 199.817,129.545" fill-opacity="0" stroke="#800000" stroke-width="4.8" id="path5865"/>
      <path d="M193.3,127.586 C200.108,128.072 201.997,130.353 202.729,135.586 L202.729,135.586" fill-opacity="0" stroke="#800000" stroke-width="4.8" id="path5867"/>
      <path d="M63.168,127.443 C56.361,127.929 54.472,130.21 53.739,135.443 L53.739,135.443" fill-opacity="0" stroke="#800000" stroke-width="4.8" id="path5869"/>
      <path d="M66.472,142.986 C55.529,154.921 36.091,145.079 34.757,154.843 C36.815,167.515 78.034,165.478 86.472,156.843 L86.472,156.557" fill-opacity="0" stroke="#000000" stroke-width="4.8" id="path5871"/>
      <path d="M189.153,142.986 C200.096,154.921 219.534,145.079 220.867,154.843 C218.809,167.515 177.59,165.478 169.153,156.843 L169.153,156.557" fill-opacity="0" stroke="#000000" stroke-width="4.8" id="path5873"/>
      <g id="ellipse5877">
        <path d="M159.956,140.83 C159.956,155.893 146.117,168.104 129.045,168.104 C111.974,168.104 98.135,155.893 98.135,140.83 C98.135,125.767 111.974,113.555 129.045,113.555 C146.117,113.555 159.956,125.767 159.956,140.83 z" fill-opacity="0" stroke="#800000" stroke-width="4.8"/>
      </g>
      <g id="ellipse5879">
        <path d="M123.09,140.046 C123.09,146.295 120.196,151.36 116.625,151.36 C113.055,151.36 110.16,146.295 110.16,140.046 C110.16,133.798 113.055,128.733 116.625,128.733 C120.196,128.733 123.09,133.798 123.09,140.046 z" fill="#000000"/>
        <path d="M123.59,140.546 C123.59,146.795 120.696,151.86 117.125,151.86 C113.555,151.86 110.66,146.795 110.66,140.546 C110.66,134.298 113.555,129.233 117.125,129.233 C120.696,129.233 123.59,134.298 123.59,140.546 z" fill-opacity="0" stroke="#000000" stroke-width="3.2"/>
      </g>
      <g id="ellipse5881">
        <path d="M144.91,139.642 C144.91,145.891 142.015,150.956 138.445,150.956 C134.874,150.956 131.98,145.891 131.98,139.642 C131.98,133.394 134.874,128.329 138.445,128.329 C142.015,128.329 144.91,133.394 144.91,139.642 z" fill="#000000"/>
        <path d="M145.41,140.142 C145.41,146.391 142.515,151.456 138.945,151.456 C135.374,151.456 132.48,146.391 132.48,140.142 C132.48,133.894 135.374,128.829 138.945,128.829 C142.515,128.829 145.41,133.894 145.41,140.142 z" fill-opacity="0" stroke="#000000" stroke-width="3.2"/>
      </g>
      <g id="path5883" opacity="0.95">
        <path d="M159.956,67.613 C160.645,49.159 172.686,37.91 195.917,32.864 C221.23,56.774 225.438,86.114 192.281,101.15 C171.736,96.282 159.114,90.157 159.956,67.613 z" fill-opacity="0" stroke="#800000" stroke-width="4.8" stroke-linecap="round" stroke-linejoin="round"/>
      </g>
      <path d="M170.276,75.864 C170.276,75.864 173.562,67.911 176.741,65.258 C180.12,62.436 189.065,60.51 189.065,60.51" fill-opacity="0" stroke="#800000" stroke-width="4.8" stroke-linecap="round" stroke-linejoin="round" id="path5885"/>
      <g id="path5887" opacity="0.95">
        <path d="M97.193,67.411 C96.504,48.957 84.463,37.708 61.231,32.662 C35.918,56.572 31.71,85.912 64.868,100.948 C85.413,96.08 98.035,89.955 97.193,67.411 z" fill-opacity="0" stroke="#800000" stroke-width="4.8" stroke-linecap="round" stroke-linejoin="round"/>
      </g>
      <path d="M85.273,72.462 C85.273,72.462 81.987,64.509 78.808,61.855 C75.428,59.034 66.484,57.108 66.484,57.108" fill-opacity="0" stroke="#800000" stroke-width="4.8" stroke-linecap="round" stroke-linejoin="round" id="path5889"/>
      <path d="M64.598,100.948 C64.598,100.948 17.419,121.222 18.249,131.612 C23.453,130.914 24.595,134.485 24.595,134.485 C19.873,138.606 15.988,144.567 13.006,150.304" fill-opacity="0" stroke="#800000" stroke-width="4.8" id="path5891"/>
      <path d="M192.196,101.756 C192.196,101.756 239.374,122.03 238.545,132.42 C233.341,131.722 232.198,135.294 232.198,135.294 C238.41,140.714 243.173,149.318 246.338,156.409" fill-opacity="0" stroke="#800000" stroke-width="4.8" id="path5893"/>
      <g id="g5897">
        <g id="ellipse5899">
          <path d="M132.48,92.665 C132.48,112.415 119.636,128.425 103.791,128.425 C87.947,128.425 75.103,112.415 75.103,92.665 C75.103,72.916 87.947,56.906 103.791,56.906 C119.636,56.906 132.48,72.916 132.48,92.665 z" fill-opacity="0" stroke="#000000" stroke-width="4.8"/>
        </g>
        <g id="ellipse5901">
          <path d="M178.139,99.316 C178.139,117.168 167.918,131.641 155.309,131.641 C142.701,131.641 132.48,117.168 132.48,99.316 C132.48,81.463 142.701,66.991 155.309,66.991 C167.918,66.991 178.139,81.463 178.139,99.316 z" fill-opacity="0" stroke="#000000" stroke-width="4.8"/>
        </g>
        <g id="circle5903">
          <path d="M119.454,95.6 C119.454,97.496 117.916,99.034 116.019,99.034 C114.123,99.034 112.585,97.496 112.585,95.6 C112.585,93.703 114.123,92.165 116.019,92.165 C117.916,92.165 119.454,93.703 119.454,95.6 z" fill="#000000"/>
          <path d="M119.954,96.1 C119.954,97.996 118.416,99.534 116.519,99.534 C114.623,99.534 113.085,97.996 113.085,96.1 C113.085,94.203 114.623,92.665 116.519,92.665 C118.416,92.665 119.954,94.203 119.954,96.1 z" fill-opacity="0" stroke="#000000" stroke-width="4.8"/>
        </g>
        <g id="circle5905">
          <path d="M150.583,95.6 C150.583,97.496 149.045,99.034 147.148,99.034 C145.252,99.034 143.714,97.496 143.714,95.6 C143.714,93.703 145.252,92.165 147.148,92.165 C149.045,92.165 150.583,93.703 150.583,95.6 z" fill="#000000"/>
          <path d="M151.083,96.1 C151.083,97.996 149.545,99.534 147.648,99.534 C145.752,99.534 144.214,97.996 144.214,96.1 C144.214,94.203 145.752,92.665 147.648,92.665 C149.545,92.665 151.083,94.203 151.083,96.1 z" fill-opacity="0" stroke="#000000" stroke-width="4.8"/>
        </g>
      </g>
      <g id="path5907">
        <path d="M96.018,49.537 C104.982,46.109 111.432,43.563 121.676,44.89 C119.642,16.784 92.086,42.941 96.018,49.537 z" fill="#000000"/>
        <path d="M96.518,50.037 C105.482,46.609 111.932,44.063 122.176,45.39 C120.142,17.284 92.586,43.441 96.518,50.037 z" fill-opacity="0" stroke="#000000" stroke-width="1.6"/>
      </g>
      <g id="path5909">
        <path d="M165.517,54.183 C155.472,51.873 152.301,51.949 147.334,52.163 C146.036,34.207 167.944,40.036 165.517,54.183 z" fill="#000000"/>
        <path d="M166.017,54.683 C155.972,52.373 152.801,52.449 147.834,52.663 C146.536,34.707 168.444,40.536 166.017,54.683 z" fill-opacity="0" stroke="#000000" stroke-width="1.6"/>
      </g>
      <path d="M255.3,128.9 C255.3,198.709 198.709,255.3 128.9,255.3 C59.092,255.3 2.5,198.709 2.5,128.9 C2.5,59.091 59.092,2.5 128.9,2.5 C198.709,2.5 255.3,59.091 255.3,128.9 z" fill-opacity="0" stroke="#000000" stroke-width="3.2" stroke-linecap="round" stroke-linejoin="round" id="circle4272" opacity="0.95"/>
      <g id="path4216">
        <path d="M114.125,209.726 Q114.341,210.59 113.909,211.382 Q113.477,212.174 112.613,212.39 Q112.037,212.534 111.389,212.678 Q110.741,212.822 110.021,212.966 Q110.093,218.366 110.237,222.11 Q110.381,225.854 110.525,227.078 Q110.885,227.942 110.525,228.734 Q110.093,229.958 108.797,230.102 Q108.725,230.174 108.509,230.174 Q107.501,230.174 106.781,229.238 Q106.421,228.806 106.277,228.23 Q106.205,227.582 106.133,226.07 Q105.989,225.134 105.917,223.91 Q105.917,222.686 105.845,221.102 Q105.773,219.446 105.701,217.574 Q105.701,215.63 105.701,213.614 Q102.749,213.974 99.509,214.19 Q96.341,214.406 93.317,214.406 Q92.669,214.406 92.021,214.406 Q91.373,214.406 90.797,214.334 Q90.653,217.79 90.365,221.174 Q90.149,224.486 89.789,227.87 Q89.717,228.734 89.069,229.31 Q88.493,229.814 87.701,229.814 L87.413,229.814 Q86.549,229.67 85.973,229.022 Q85.397,228.302 85.541,227.438 Q85.901,224.126 86.117,220.814 Q86.333,217.43 86.477,214.046 Q86.117,213.974 85.757,213.902 Q85.469,213.83 85.109,213.758 Q84.245,213.614 83.741,212.894 Q83.309,212.102 83.453,211.238 Q83.597,210.374 84.317,209.87 Q85.109,209.366 86.045,209.582 Q86.189,209.582 86.333,209.654 Q86.477,209.654 86.693,209.654 Q86.837,202.67 86.765,195.902 Q86.693,189.062 86.477,182.294 Q86.477,181.358 87.053,180.71 Q87.701,180.062 88.637,180.062 Q89.501,179.99 90.149,180.638 Q90.797,181.286 90.797,182.15 Q91.013,188.99 91.085,195.974 Q91.157,202.958 90.941,210.014 Q94.325,210.158 98.213,209.942 Q102.173,209.726 105.629,209.294 Q105.629,208.502 105.629,207.782 Q105.629,207.062 105.557,206.27 Q105.557,203.102 105.557,198.926 Q105.629,194.75 105.773,190.862 Q105.845,188.27 105.917,186.614 Q106.061,184.958 106.205,183.878 Q106.349,182.798 106.493,182.294 Q106.709,181.718 106.853,181.358 Q107.213,180.566 108.005,180.206 Q108.869,179.846 109.661,180.206 Q110.453,180.566 110.741,181.43 Q111.101,182.294 110.741,183.086 Q110.597,183.446 110.453,184.814 Q110.309,186.11 110.165,188.774 Q110.021,191.366 109.949,195.47 Q109.877,199.574 109.877,205.478 Q109.877,206.27 109.877,207.062 Q109.949,207.782 109.949,208.574 Q110.669,208.502 111.461,208.214 Q112.325,207.998 113.045,208.43 Q113.837,208.862 114.125,209.726 z" fill="#000000"/>
        <path d="M114.625,210.226 Q114.841,211.09 114.409,211.882 Q113.977,212.674 113.113,212.89 Q112.537,213.034 111.889,213.178 Q111.241,213.322 110.521,213.466 Q110.593,218.866 110.737,222.61 Q110.881,226.354 111.025,227.578 Q111.385,228.442 111.025,229.234 Q110.593,230.458 109.297,230.602 Q109.225,230.674 109.009,230.674 Q108.001,230.674 107.281,229.738 Q106.921,229.306 106.777,228.73 Q106.705,228.082 106.633,226.57 Q106.489,225.634 106.417,224.41 Q106.417,223.186 106.345,221.602 Q106.273,219.946 106.201,218.074 Q106.201,216.13 106.201,214.114 Q103.249,214.474 100.009,214.69 Q96.841,214.906 93.817,214.906 Q93.169,214.906 92.521,214.906 Q91.873,214.906 91.297,214.834 Q91.153,218.29 90.865,221.674 Q90.649,224.986 90.289,228.37 Q90.217,229.234 89.569,229.81 Q88.993,230.314 88.201,230.314 L87.913,230.314 Q87.049,230.17 86.473,229.522 Q85.897,228.802 86.041,227.938 Q86.401,224.626 86.617,221.314 Q86.833,217.93 86.977,214.546 Q86.617,214.474 86.257,214.402 Q85.969,214.33 85.609,214.258 Q84.745,214.114 84.241,213.394 Q83.809,212.602 83.953,211.738 Q84.097,210.874 84.817,210.37 Q85.609,209.866 86.545,210.082 Q86.689,210.082 86.833,210.154 Q86.977,210.154 87.193,210.154 Q87.337,203.17 87.265,196.402 Q87.193,189.562 86.977,182.794 Q86.977,181.858 87.553,181.21 Q88.201,180.562 89.137,180.562 Q90.001,180.49 90.649,181.138 Q91.297,181.786 91.297,182.65 Q91.513,189.49 91.585,196.474 Q91.657,203.458 91.441,210.514 Q94.825,210.658 98.713,210.442 Q102.673,210.226 106.129,209.794 Q106.129,209.002 106.129,208.282 Q106.129,207.562 106.057,206.77 Q106.057,203.602 106.057,199.426 Q106.129,195.25 106.273,191.362 Q106.345,188.77 106.417,187.114 Q106.561,185.458 106.705,184.378 Q106.849,183.298 106.993,182.794 Q107.209,182.218 107.353,181.858 Q107.713,181.066 108.505,180.706 Q109.369,180.346 110.161,180.706 Q110.953,181.066 111.241,181.93 Q111.601,182.794 111.241,183.586 Q111.097,183.946 110.953,185.314 Q110.809,186.61 110.665,189.274 Q110.521,191.866 110.449,195.97 Q110.377,200.074 110.377,205.978 Q110.377,206.77 110.377,207.562 Q110.449,208.282 110.449,209.074 Q111.169,209.002 111.961,208.714 Q112.825,208.498 113.545,208.93 Q114.337,209.362 114.625,210.226 z" fill-opacity="0" stroke="#000000" stroke-width="3.28"/>
      </g>
      <g id="path4218">
        <path d="M128.812,229.526 Q123.268,229.526 119.956,225.638 Q117.58,222.686 116.716,218.222 Q116.356,216.278 116.356,214.118 Q116.428,211.958 116.788,209.726 Q117.292,206.702 118.372,203.966 Q119.452,201.23 121.036,199.142 Q124.78,194.03 130.036,194.03 L130.324,194.03 Q135.292,194.246 138.748,198.782 Q140.188,200.654 141.124,203.102 Q142.132,205.55 142.564,208.358 Q142.924,210.59 142.852,212.822 Q142.852,215.054 142.492,217.142 Q141.628,221.822 138.964,224.918 Q137.164,227.078 134.716,228.302 Q132.268,229.454 129.244,229.526 L128.812,229.526 z M130.036,198.35 Q128.164,198.35 126.724,199.502 Q125.356,200.582 124.492,201.734 Q121.9,205.19 121.036,210.446 Q120.46,214.262 121.036,217.574 Q121.612,220.886 123.268,222.83 Q125.284,225.206 128.812,225.206 L129.1,225.206 Q133.276,225.062 135.652,222.182 Q137.524,219.95 138.172,216.422 Q138.892,212.894 138.316,209.006 Q137.956,207.062 137.236,205.19 Q136.588,203.318 135.58,201.806 Q134.572,200.294 133.204,199.358 Q131.836,198.422 130.18,198.35 L130.036,198.35 z" fill="#000000"/>
        <path d="M129.312,230.026 Q123.768,230.026 120.456,226.138 Q118.08,223.186 117.216,218.722 Q116.856,216.778 116.856,214.618 Q116.928,212.458 117.288,210.226 Q117.792,207.202 118.872,204.466 Q119.952,201.73 121.536,199.642 Q125.28,194.53 130.536,194.53 L130.824,194.53 Q135.792,194.746 139.248,199.282 Q140.688,201.154 141.624,203.602 Q142.632,206.05 143.064,208.858 Q143.424,211.09 143.352,213.322 Q143.352,215.554 142.992,217.642 Q142.128,222.322 139.464,225.418 Q137.664,227.578 135.216,228.802 Q132.768,229.954 129.744,230.026 L129.312,230.026 z M130.536,198.85 Q128.664,198.85 127.224,200.002 Q125.856,201.082 124.992,202.234 Q122.4,205.69 121.536,210.946 Q120.96,214.762 121.536,218.074 Q122.112,221.386 123.768,223.33 Q125.784,225.706 129.312,225.706 L129.6,225.706 Q133.776,225.562 136.152,222.682 Q138.024,220.45 138.672,216.922 Q139.392,213.394 138.816,209.506 Q138.456,207.562 137.736,205.69 Q137.088,203.818 136.08,202.306 Q135.072,200.794 133.704,199.858 Q132.336,198.922 130.68,198.85 L130.536,198.85 z" fill-opacity="0" stroke="#000000" stroke-width="3.28"/>
      </g>
      <g id="path4220">
        <path d="M160.104,244.598 Q159.528,244.598 159.024,244.526 Q158.52,244.454 157.944,244.31 Q156.072,243.878 154.416,242.726 Q152.76,241.574 151.536,239.918 Q150.312,238.118 149.808,235.958 Q149.304,233.87 149.664,231.71 Q149.808,230.846 150.528,230.27 Q151.32,229.766 152.184,229.91 Q153.048,230.054 153.552,230.774 Q154.128,231.566 153.984,232.43 Q153.696,233.87 153.984,235.094 Q154.344,236.39 155.064,237.398 Q155.784,238.478 156.792,239.126 Q157.872,239.846 158.952,240.134 Q159.528,240.278 160.248,240.278 Q161.04,240.278 161.832,239.918 Q162.624,239.558 163.344,238.694 Q164.064,237.83 164.568,236.174 Q164.856,235.238 165.072,233.366 Q165.288,231.494 165.36,229.046 Q165.504,226.67 165.576,223.862 Q165.648,220.982 165.648,218.174 Q164.28,220.766 162.84,222.422 Q159.672,226.238 155.928,226.238 L155.856,226.238 Q153.48,226.238 151.536,225.086 Q149.664,223.862 148.44,221.558 Q147.288,219.326 146.928,216.446 Q146.568,213.494 147.072,210.182 Q147.504,206.87 148.656,203.774 Q149.88,200.678 151.752,198.158 Q154.92,193.694 159.312,191.75 Q163.704,189.806 168.888,190.598 Q169.824,190.742 170.328,191.462 Q170.904,192.182 170.76,193.046 Q170.616,193.91 169.896,194.486 Q169.176,194.99 168.24,194.846 Q165.72,194.486 163.704,194.918 Q161.688,195.278 160.104,196.214 Q158.52,197.078 157.296,198.302 Q156.072,199.454 155.208,200.678 Q153.696,202.766 152.688,205.43 Q151.68,208.022 151.32,210.758 Q150.96,213.422 151.176,215.726 Q151.464,217.958 152.328,219.542 Q153.48,221.918 155.856,221.918 L155.928,221.918 Q157.584,221.918 159.528,219.686 Q161.04,217.814 162.48,214.79 Q163.92,211.694 165.144,207.806 Q165.288,207.23 165.432,206.726 Q165.648,206.15 165.792,205.574 Q165.792,204.854 165.792,204.206 Q165.792,203.486 165.864,202.838 Q165.936,200.462 166.08,199.094 Q166.224,198.374 166.512,197.366 Q166.8,196.358 167.952,195.926 Q169.392,195.35 170.472,196.502 Q171.048,197.078 171.192,197.942 Q171.336,198.806 171.192,199.958 Q171.048,201.758 170.544,203.99 Q170.4,204.566 170.256,205.07 Q170.184,205.574 170.04,206.15 Q170.04,207.95 170.04,209.894 Q170.04,211.838 169.968,213.926 Q169.896,222.71 169.68,228.83 Q169.536,234.95 168.744,237.47 Q167.304,241.718 164.28,243.518 Q162.336,244.598 160.104,244.598 z" fill="#000000"/>
        <path d="M160.604,245.098 Q160.028,245.098 159.524,245.026 Q159.02,244.954 158.444,244.81 Q156.572,244.378 154.916,243.226 Q153.26,242.074 152.036,240.418 Q150.812,238.618 150.308,236.458 Q149.804,234.37 150.164,232.21 Q150.308,231.346 151.028,230.77 Q151.82,230.266 152.684,230.41 Q153.548,230.554 154.052,231.274 Q154.628,232.066 154.484,232.93 Q154.196,234.37 154.484,235.594 Q154.844,236.89 155.564,237.898 Q156.284,238.978 157.292,239.626 Q158.372,240.346 159.452,240.634 Q160.028,240.778 160.748,240.778 Q161.54,240.778 162.332,240.418 Q163.124,240.058 163.844,239.194 Q164.564,238.33 165.068,236.674 Q165.356,235.738 165.572,233.866 Q165.788,231.994 165.86,229.546 Q166.004,227.17 166.076,224.362 Q166.148,221.482 166.148,218.674 Q164.78,221.266 163.34,222.922 Q160.172,226.738 156.428,226.738 L156.356,226.738 Q153.98,226.738 152.036,225.586 Q150.164,224.362 148.94,222.058 Q147.788,219.826 147.428,216.946 Q147.068,213.994 147.572,210.682 Q148.004,207.37 149.156,204.274 Q150.38,201.178 152.252,198.658 Q155.42,194.194 159.812,192.25 Q164.204,190.306 169.388,191.098 Q170.324,191.242 170.828,191.962 Q171.404,192.682 171.26,193.546 Q171.116,194.41 170.396,194.986 Q169.676,195.49 168.74,195.346 Q166.22,194.986 164.204,195.418 Q162.188,195.778 160.604,196.714 Q159.02,197.578 157.796,198.802 Q156.572,199.954 155.708,201.178 Q154.196,203.266 153.188,205.93 Q152.18,208.522 151.82,211.258 Q151.46,213.922 151.676,216.226 Q151.964,218.458 152.828,220.042 Q153.98,222.418 156.356,222.418 L156.428,222.418 Q158.084,222.418 160.028,220.186 Q161.54,218.314 162.98,215.29 Q164.42,212.194 165.644,208.306 Q165.788,207.73 165.932,207.226 Q166.148,206.65 166.292,206.074 Q166.292,205.354 166.292,204.706 Q166.292,203.986 166.364,203.338 Q166.436,200.962 166.58,199.594 Q166.724,198.874 167.012,197.866 Q167.3,196.858 168.452,196.426 Q169.892,195.85 170.972,197.002 Q171.548,197.578 171.692,198.442 Q171.836,199.306 171.692,200.458 Q171.548,202.258 171.044,204.49 Q170.9,205.066 170.756,205.57 Q170.684,206.074 170.54,206.65 Q170.54,208.45 170.54,210.394 Q170.54,212.338 170.468,214.426 Q170.396,223.21 170.18,229.33 Q170.036,235.45 169.244,237.97 Q167.804,242.218 164.78,244.018 Q162.836,245.098 160.604,245.098 z" fill-opacity="0" stroke="#000000" stroke-width="3.28"/>
      </g>
    </g>
  </g>
</svg>
