<?xml version="1.0" encoding="UTF-8"?>
<!DOCTYPE svg PUBLIC "-//W3C//DTD SVG 1.1//EN" "http://www.w3.org/Graphics/SVG/1.1/DTD/svg11.dtd">
<svg version="1.1" xmlns="http://www.w3.org/2000/svg" xmlns:xlink="http://www.w3.org/1999/xlink" x="0" y="0" width="256.8" height="256.8" viewBox="0, 0, 256.8, 256.8">
  <g id="Layer_1">
    <g id="ellipse5879">
      <path d="M111.359,130.004 C111.359,157.105 100.355,179.071 86.776,179.071 C73.201,179.071 62.193,157.105 62.193,130.004 C62.193,102.908 73.201,80.942 86.776,80.942 C100.355,80.942 111.359,102.908 111.359,130.004 z" fill="#000000"/>
      <path d="M111.859,130.504 C111.859,157.605 100.855,179.571 87.276,179.571 C73.701,179.571 62.693,157.605 62.693,130.504 C62.693,103.408 73.701,81.442 87.276,81.442 C100.855,81.442 111.859,103.408 111.859,130.504 z" fill-opacity="0" stroke="#000000" stroke-width="3.2"/>
    </g>
    <g id="ellipse5881">
      <path d="M194.607,130.004 C194.607,157.105 183.599,179.071 170.024,179.071 C156.445,179.071 145.441,157.105 145.441,130.004 C145.441,102.908 156.445,80.942 170.024,80.942 C183.599,80.942 194.607,102.908 194.607,130.004 z" fill="#000000"/>
      <path d="M195.107,130.504 C195.107,157.605 184.099,179.571 170.524,179.571 C156.945,179.571 145.941,157.605 145.941,130.504 C145.941,103.408 156.945,81.442 170.524,81.442 C184.099,81.442 195.107,103.408 195.107,130.504 z" fill-opacity="0" stroke="#000000" stroke-width="3.2"/>
    </g>
    <path d="M255.3,128.9 C255.3,198.709 198.709,255.3 128.9,255.3 C59.092,255.3 2.5,198.709 2.5,128.9 C2.5,59.091 59.092,2.5 128.9,2.5 C198.709,2.5 255.3,59.091 255.3,128.9 z" fill-opacity="0" stroke="#000000" stroke-width="3.2" stroke-linecap="round" stroke-linejoin="round" id="circle4272" opacity="0.95"/>
  </g>
</svg>
